<?xml version="1.0" standalone="no"?><!DOCTYPE svg PUBLIC "-//W3C//DTD SVG 1.1//EN" "http://www.w3.org/Graphics/SVG/1.1/DTD/svg11.dtd"><svg t="1528584713473" class="icon" style="" viewBox="0 0 1024 1024" version="1.1" xmlns="http://www.w3.org/2000/svg" p-id="3774" xmlns:xlink="http://www.w3.org/1999/xlink" width="200" height="200"><defs><style type="text/css"></style></defs><path d="M437.788672 910.747648l40.448 0c0 0 0.512-179.244032 0-192.812032s5.352448-28.437504 11.264-35.328c5.912576-6.890496 449.024-523.265024 449.024-523.265024S816.226304 784.319488 814.598144 792.605696c-1.258496 6.397952-5.438464 9.127936-11.242496 7.24992-7.002112-2.267136-262.656-81.92-262.656-81.92l-12.991488 39.424c0 0 242.736128 76.238848 266.943488 83.456 26.624 7.936 54.272-9.216 59.904-39.424 4.647936-24.923136 131.264512-669.364224 133.122048-680.957952 1.854464-11.59168 6.984704-27.988992-12.52352-37.404672-14.442496-6.971392-31.850496 8.050688-31.850496 8.050688l-5.462016-10.584064c0 0-820.651008 438.187008-849.92 453.972992s-27.97056 49.03424-3.412992 57.004032c24.557568 7.968768 272.384 88.403968 272.384 88.403968l12.630016-38.912-245.076992-78.848 765.952-409.940992c0 0-409.6 477.184-426.496 496.64s-26.401792 39.68-26.368 65.28C437.566464 739.697664 437.788672 910.747648 437.788672 910.747648z" p-id="3775" fill="#ffffff"></path></svg>